# xmcd
#
# Track frame offsets:
#	150
#	17895
#	31196
#	47527
#	62837
#	81084
#	96913
#	115908
#	133956
#	152415
#	168708
#
# Disc length: 2451 seconds
#
# Revision: 1
# Processed by: cddbd v1.5.2PL0 Copyright (c) Steve Scherf et al.
# Submitted via: audiograbber 1.83.01
#
DISCID=8c09910b
DTITLE=Taylor Swift - Taylor Swift
DYEAR=2006
DGENRE=Country
TTITLE0=Tim McGraw
TTITLE1=Picture To Burn
TTITLE2=Teardrops On My Guitar
TTITLE3=A Place in This World
TTITLE4=Cold As You
TTITLE5=The Outside
TTITLE6=Tied Together
TTITLE7=Stay Beautiful
TTITLE8=Should've Said No
TTITLE9=Mary's Song (Oh My My My)
TTITLE10=Our Song
EXTD=
EXTT0=
EXTT1=
EXTT2=
EXTT3=
EXTT4=
EXTT5=
EXTT6=
EXTT7=
EXTT8=
EXTT9=
EXTT10=
PLAYORDER=
